<svg id="Layer_2" data-name="Layer 2" xmlns="http://www.w3.org/2000/svg" xmlns:xlink="http://www.w3.org/1999/xlink" viewBox="0 0 400 300" width="406" height="306" class="illustration styles_illustrationTablet__1DWOa"><defs><linearGradient id="linear-gradient" x1="186.12" y1="205.71" x2="263.34" y2="114.14" gradientUnits="userSpaceOnUse"><stop offset="0" stop-opacity="0"></stop><stop offset="1" stop-color="#935a24"></stop></linearGradient><linearGradient id="linear-gradient-2" x1="324.76" y1="202.69" x2="350.27" y2="178.7" gradientUnits="userSpaceOnUse"><stop offset="0" stop-opacity="0"></stop><stop offset="0.99" stop-color="#552800"></stop></linearGradient></defs><title>PP</title><path d="M194.36,286.74,16.89,181.85c-5.65-3.17-10.5-8.38-5-11.79L190,67.41c2.67-1.65,6.73-2.74,9.45-1.16L385.74,174.36c5.65,3.28,6.66,12.45,1,15.73l-169,96.48A23.6,23.6,0,0,1,194.36,286.74Z" fill="#55823d"></path><path d="M227.13,165.63c-18.44-4-38.71-4.36-56.07,3.79l-44.16,27.08c6.18,5,51.18,28.36,58,32.49l87-45.44A138.43,138.43,0,0,0,227.13,165.63Z" fill="url(#linear-gradient)"></path><rect x="165.79" y="95.67" width="7.64" height="88.68" rx="2.26" ry="2.26" transform="translate(40.03 -37.69) rotate(14.36)" fill="#d37e6a"></rect><rect x="209.63" y="120.42" width="7.64" height="88.68" rx="2.26" ry="2.26" fill="#d37e6a"></rect><rect x="256.21" y="96.03" width="7.64" height="88.68" rx="2.26" ry="2.26" transform="translate(-24.64 61.11) rotate(-12.8)" fill="#d37e6a"></rect><ellipse cx="214.19" cy="106.77" rx="54.61" ry="30.82" fill="#ce4823"></ellipse><ellipse cx="214.19" cy="101.47" rx="54.61" ry="30.82" fill="#d66449"></ellipse><path d="M135.07,89.76s15.57,9.94,20.17,10.6,27.68-12.45,30.43-12,3.75,13.21,3.75,13.21S166,124,155.52,125.18s-20.42-11.35-20.42-11.35" fill="#b21414"></path><path d="M135.07,89.76s15.57,9.94,20.17,10.6,27.68-12.45,30.43-12,3.75,13.21,3.75,13.21S166,124,155.52,125.18s-20.42-11.35-20.42-11.35" fill="#146666" opacity="0.47"></path><path d="M232.84,70.75l2.87,33s3.3,3.5,11.77,3.5S258,102,258,102l2.15-31.28S259.21,65,245.33,65C234.42,65,232.84,70.75,232.84,70.75Z" fill="#d8d8d8"></path><path d="M234.48,72.3l2.24,27.3s1.62,4.11,9.91,4.11,9.78-4.36,9.78-4.36l2.37-27" fill="#fea94e"></path><ellipse cx="246.63" cy="72.3" rx="12.15" ry="5.98" fill="#fece00"></ellipse><ellipse cx="246.63" cy="71.65" rx="13.51" ry="6.63" fill="none" stroke="#c4c4c4" stroke-miterlimit="10"></ellipse><path d="M250.05,78.28V106a15.81,15.81,0,0,0,2.87-.79c.12-.23.19-27.87.19-27.87Z" fill="#fff" opacity="0.33"></path><path d="M170.16,92s-1,25.32,28.36,25.32c29.55,0,28.73-22.93,28.36-25.32S170.16,92,170.16,92Z" fill="#b21414"></path><path d="M170.16,92s-1,25.32,28.36,25.32c29.55,0,28.73-22.93,28.36-25.32S170.16,92,170.16,92Z" fill="#093e3e" opacity="0.29"></path><path d="M188.59,108.91a41.57,41.57,0,0,1-6-17.34c-7.22.24-12.4.46-12.4.46s-1,24.51,27,25.3A28,28,0,0,1,188.59,108.91Z" fill="#093e3e" opacity="0.29"></path><ellipse cx="198.52" cy="92.02" rx="28.36" ry="14.84" fill="#b21414"></ellipse><ellipse cx="198.5" cy="92.02" rx="25.91" ry="13.04" fill="#093e3e" opacity="0.66"></ellipse><path d="M194.15,87.12a3.61,3.61,0,0,1-4.11.69,4.31,4.31,0,0,0,2.38-.33c.91-.49,1.25-1.5,1.77-2.32a4.4,4.4,0,0,1,3.31-2.32.68.68,0,0,1,.27,0,1.83,1.83,0,0,0,0-.33c0-2.17-2.23.49-3.08-.92a1.25,1.25,0,0,1-.17-.51c-.13.31-.26.62-.39.94-.7.79-1.27,1.7-2,2.52a5.28,5.28,0,0,1-4.66,1.8,6,6,0,0,0,4.73-3c1-1.69,1.3-3.7,2.58-5.27A.67.67,0,0,1,195,78a2,2,0,0,0-.4-.36c-1.78-1.26-2.28,2.45-3.25,1.69a.71.71,0,0,1-.28-.73,3.79,3.79,0,0,0-.31.43c-.65,1.1-.57,2.4-1.13,3.52-.83,1.68-2.82,1.64-4.26,2.49.6-.73,1.48-1,2.22-1.61a6.23,6.23,0,0,0,1.74-3.33,6.56,6.56,0,0,1,1.1-2.92,3,3,0,0,1,.93-.7c-.52-.25-1.52-.21-3.51,1.42a5.1,5.1,0,0,1-.91.61,16.42,16.42,0,0,0-1.64,5.22.66.66,0,0,1-.12.28,17.84,17.84,0,0,1,0-3.46,13.18,13.18,0,0,1,.45-2c-.62-.33-.86-1-2.17.91-2.2,3.2-.15,6.82-.15,6.82,4,5,13.2,3.31,13.19,1.19a1.48,1.48,0,0,0-1.18-1.68c-.15.25-.3.5-.45.76S194.39,86.92,194.15,87.12Z" fill="#a9cb1c"></path><path d="M189.31,80.07a6.23,6.23,0,0,1-1.74,3.33c-.74.64-1.61.88-2.22,1.61,1.44-.86,3.42-.81,4.26-2.49.55-1.12.47-2.42,1.13-3.52a3.79,3.79,0,0,1,.31-.43c.12-.69,1-1.44.79-1.67a1.29,1.29,0,0,0-.48-.44,3,3,0,0,0-.93.7A6.56,6.56,0,0,0,189.31,80.07Z" fill="#8baa07"></path><path d="M192.22,83.38a6,6,0,0,1-4.73,3,5.28,5.28,0,0,0,4.66-1.8c.73-.82,1.3-1.73,2-2.52.13-.31.25-.63.39-.94C194.42,80,195.78,79,195,78a.67.67,0,0,0-.17.15C193.52,79.68,193.26,81.69,192.22,83.38Z" fill="#8baa07"></path><path d="M194.55,85.2c-.13-.88,2.87-.53,3.21-2.33a.68.68,0,0,0-.27,0,4.4,4.4,0,0,0-3.31,2.32c-.52.82-.85,1.83-1.77,2.32a4.31,4.31,0,0,1-2.38.33,3.61,3.61,0,0,0,4.11-.69c.24-.2.48-.39.71-.56s.3-.51.45-.76C194.94,85.68,194.61,85.58,194.55,85.2Z" fill="#8baa07"></path><path d="M185.17,84a.66.66,0,0,0,.12-.28,16.42,16.42,0,0,1,1.64-5.22,1.29,1.29,0,0,1-1.31.08,13.18,13.18,0,0,0-.45,2A17.84,17.84,0,0,0,185.17,84Z" fill="#8baa07"></path><path d="M182.6,92.66s2.22-7.54.19-9.32S181,84,180,83.75s-.53-3.47-2.3-3-.07,2.55-.85,3.26-2.47-2.12-3.39-.78,1,1.58.49,2.73-3,0-2.83,1.86,3.11.92,2.76,2.12-3.46.42-1.48,2.4S181.76,93.43,182.6,92.66Z" fill="#7aa901"></path><path d="M182.6,92.66a22.94,22.94,0,0,1-.43-4.17,6.34,6.34,0,0,0-.29-2.5c-.21-1.11-.63-1.58-.63-1.45s.49,2.46-.28,3.31-1.13-.52-1.56-1.32-1.31-1-1.24-1.82a3.68,3.68,0,0,0-.53-1.82,16.75,16.75,0,0,1,.49,3.64c-.14.9-1.13-.68-1.63-1.09a3.47,3.47,0,0,0-1.41-.55s2.59,2.69,2.25,3.25-2.39-1-3-1,1.34,2,1.84,2,2.49.07,2.24.42-2.21.42-3,.92a15.32,15.32,0,0,1-2.24,1.06s2.66-.42,4.16-.64,2.07-.71,2.6,0A10.26,10.26,0,0,0,182.6,92.66Z" fill="#759b00"></path><path d="M221.75,87.16a3.61,3.61,0,0,1-2.15,3.58,4.31,4.31,0,0,0,1.29-2,5.63,5.63,0,0,0-.62-2.85,4.4,4.4,0,0,1,.39-4,.68.68,0,0,1,.2-.19,1.83,1.83,0,0,0-.23-.24c-1.64-1.42-1.08,2-2.7,1.74a1.25,1.25,0,0,1-.5-.2l.46.9c.15,1,.46,2.07.61,3.16a5.28,5.28,0,0,1-1.66,4.71,6,6,0,0,0,.81-5.53c-.61-1.89-2-3.4-2.33-5.38a.67.67,0,0,1,0-.23,2,2,0,0,0-.53.07c-2.11.53.38,3.33-.82,3.57a.71.71,0,0,1-.73-.26,3.79,3.79,0,0,0,.13.52c.41,1.21,1.45,2,1.94,3.14.74,1.73-.59,3.2-.87,4.86a16.34,16.34,0,0,1,.22-2.73,6.23,6.23,0,0,0-1.4-3.49,6.56,6.56,0,0,1-1.5-2.74,3,3,0,0,1,.07-1.16c-.53.23-1.15,1-1.2,3.59A5.1,5.1,0,0,1,210.5,87a16.42,16.42,0,0,0,2.9,4.64.66.66,0,0,1,.14.27,17.84,17.84,0,0,1-2.63-2.24,13.18,13.18,0,0,1-1.21-1.63c-.65.25-1.32,0-.72,2.24,1,3.76,5.08,4.54,5.08,4.54,6.4.16,11.1-7.88,9.48-9.25a1.48,1.48,0,0,0-2-.19c.09.28.19.56.29.84S221.76,86.84,221.75,87.16Z" fill="#a9cb1c"></path><path d="M213.25,86.25a6.23,6.23,0,0,1,1.4,3.49,16.34,16.34,0,0,0-.22,2.73c.28-1.65,1.61-3.13.87-4.86-.49-1.15-1.53-1.93-1.94-3.14a3.79,3.79,0,0,1-.13-.52c-.45-.54-.47-1.67-.76-1.69a1.29,1.29,0,0,0-.65.08,3,3,0,0,0-.07,1.16A6.56,6.56,0,0,0,213.25,86.25Z" fill="#8baa07"></path><path d="M217.65,86.19a6,6,0,0,1-.81,5.53A5.28,5.28,0,0,0,218.51,87c-.15-1.09-.47-2.11-.61-3.16l-.46-.9c-.91-.62-.83-2.34-2.12-2.37a.67.67,0,0,0,0,.23C215.69,82.79,217,84.3,217.65,86.19Z" fill="#8baa07"></path><path d="M220.55,85.6c-.75-.47,1.46-2.53.32-4a.68.68,0,0,0-.2.19,4.4,4.4,0,0,0-.39,4,5.63,5.63,0,0,1,.62,2.85,4.31,4.31,0,0,1-1.29,2,3.61,3.61,0,0,0,2.15-3.58c0-.32,0-.62,0-.9s-.2-.56-.29-.84C221.17,85.62,220.88,85.81,220.55,85.6Z" fill="#8baa07"></path><path d="M213.54,91.94a.66.66,0,0,0-.14-.27A16.42,16.42,0,0,1,210.5,87a1.29,1.29,0,0,1-.79,1,13.18,13.18,0,0,0,1.21,1.63A17.84,17.84,0,0,0,213.54,91.94Z" fill="#8baa07"></path><path d="M211.86,88.21s2.22-7.54.19-9.32-1.81.62-2.84.41-.53-3.47-2.3-3-.07,2.55-.85,3.26-2.47-2.12-3.39-.78,1,1.58.49,2.73-3,0-2.83,1.86,3.11.92,2.76,2.12-3.46.42-1.48,2.4S211,89,211.86,88.21Z" fill="#7aa901"></path><path d="M211.86,88.21a22.94,22.94,0,0,1-.43-4.17,6.34,6.34,0,0,0-.29-2.5c-.21-1.11-.63-1.58-.63-1.45s.49,2.46-.28,3.31-1.13-.52-1.56-1.32-1.31-1-1.24-1.82a3.68,3.68,0,0,0-.53-1.82,16.75,16.75,0,0,1,.49,3.64c-.14.9-1.13-.68-1.63-1.09a3.47,3.47,0,0,0-1.41-.55s2.59,2.69,2.25,3.25-2.39-1-3-1,1.34,2,1.84,2,2.49.07,2.24.42-2.21.42-3,.92a15.32,15.32,0,0,1-2.24,1.06s2.66-.42,4.16-.64,2.07-.71,2.6,0A10.26,10.26,0,0,0,211.86,88.21Z" fill="#759b00"></path><path d="M205.08,104.5a3.61,3.61,0,0,1-4.14.54,4.31,4.31,0,0,0,2.39-.24c.93-.46,1.3-1.45,1.85-2.25a4.4,4.4,0,0,1,3.39-2.2.68.68,0,0,1,.27,0,1.83,1.83,0,0,0,0-.33c.09-2.17-2.25.41-3-1a1.25,1.25,0,0,1-.15-.52c-.14.3-.28.61-.42.92-.73.77-1.34,1.65-2.1,2.44a5.28,5.28,0,0,1-4.72,1.62,6,6,0,0,0,4.83-2.81c1.1-1.65,1.44-3.65,2.77-5.17a.67.67,0,0,1,.18-.14,2,2,0,0,0-.39-.38c-1.73-1.32-2.37,2.36-3.31,1.57a.71.71,0,0,1-.25-.74,3.79,3.79,0,0,0-.32.42c-.69,1.07-.66,2.38-1.26,3.47-.89,1.65-2.88,1.53-4.35,2.34.63-.71,1.51-.91,2.28-1.53a6.23,6.23,0,0,0,1.86-3.26,6.56,6.56,0,0,1,1.21-2.88,3,3,0,0,1,1-.66c-.51-.27-1.51-.27-3.56,1.29a5.1,5.1,0,0,1-.93.58,16.42,16.42,0,0,0-1.83,5.16.66.66,0,0,1-.13.28,17.84,17.84,0,0,1,.12-3.45,13.18,13.18,0,0,1,.52-2c-.6-.36-.82-1-2.21.83-2.32,3.12-.4,6.81-.4,6.81,3.85,5.11,13.07,3.8,13.14,1.68a1.48,1.48,0,0,0-1.12-1.72c-.16.24-.32.49-.48.74S205.34,104.3,205.08,104.5Z" fill="#a9cb1c"></path><path d="M200.51,97.27a6.23,6.23,0,0,1-1.86,3.26c-.76.61-1.65.82-2.28,1.53,1.47-.81,3.45-.68,4.35-2.34.59-1.1.56-2.4,1.26-3.47a3.79,3.79,0,0,1,.32-.42c.14-.68,1-1.41.85-1.64a1.29,1.29,0,0,0-.47-.45,3,3,0,0,0-1,.66A6.56,6.56,0,0,0,200.51,97.27Z" fill="#8baa07"></path><path d="M203.29,100.68a6,6,0,0,1-4.83,2.81,5.28,5.28,0,0,0,4.72-1.62c.76-.79,1.37-1.68,2.1-2.44.14-.31.28-.62.42-.92-.08-1.1,1.32-2.1.54-3.13a.67.67,0,0,0-.18.14C204.73,97,204.39,99,203.29,100.68Z" fill="#8baa07"></path><path d="M205.55,102.59c-.1-.88,2.89-.43,3.29-2.21a.68.68,0,0,0-.27,0,4.4,4.4,0,0,0-3.39,2.2c-.55.8-.92,1.79-1.85,2.25a4.31,4.31,0,0,1-2.39.24,3.61,3.61,0,0,0,4.14-.54c.25-.2.49-.37.73-.53s.31-.5.48-.74C205.93,103.08,205.6,103,205.55,102.59Z" fill="#8baa07"></path><path d="M196.23,101a.66.66,0,0,0,.13-.28,16.42,16.42,0,0,1,1.83-5.16,1.29,1.29,0,0,1-1.31,0,13.18,13.18,0,0,0-.52,2A17.84,17.84,0,0,0,196.23,101Z" fill="#8baa07"></path><path d="M199.27,95s2.22-7.54.19-9.32-1.81.62-2.84.41-.53-3.47-2.3-3-.07,2.55-.85,3.26-2.47-2.12-3.39-.78,1,1.58.49,2.73-3,0-2.83,1.86,3.11.92,2.76,2.12-3.46.42-1.48,2.4S198.43,95.75,199.27,95Z" fill="#7aa901"></path><path d="M199.27,95a22.94,22.94,0,0,1-.43-4.17,6.34,6.34,0,0,0-.29-2.5c-.21-1.11-.63-1.58-.63-1.45s.49,2.46-.28,3.31-1.13-.52-1.56-1.32-1.31-1-1.24-1.82a3.68,3.68,0,0,0-.53-1.82,16.75,16.75,0,0,1,.49,3.64c-.14.9-1.13-.68-1.63-1.09a3.47,3.47,0,0,0-1.41-.55s2.59,2.69,2.25,3.25-2.39-1-3-1,1.34,2,1.84,2,2.49.07,2.24.42-2.21.42-3,.92a15.32,15.32,0,0,1-2.24,1.06s2.66-.42,4.16-.64,2.07-.71,2.6,0A10.26,10.26,0,0,0,199.27,95Z" fill="#759b00"></path><path d="M202,84.09a3.61,3.61,0,0,1,3.81,1.71,4.31,4.31,0,0,0-2.16-1,5.63,5.63,0,0,0-2.76.95,4.4,4.4,0,0,1-4,.09.68.68,0,0,1-.21-.18,1.83,1.83,0,0,0-.21.26c-1.21,1.8,2.13.83,2,2.48a1.25,1.25,0,0,1-.14.52l.84-.56c1-.27,2-.71,3.07-1a5.28,5.28,0,0,1,4.87,1.09,6,6,0,0,0-5.59-.14c-1.8.83-3.14,2.35-5.07,3a.67.67,0,0,1-.22,0,2,2,0,0,0,.13.52c.78,2,3.26-.77,3.64.4a.71.71,0,0,1-.17.76,3.79,3.79,0,0,0,.5-.19c1.15-.55,1.81-1.68,2.89-2.3,1.63-.94,3.25.2,4.93.29a16.34,16.34,0,0,1-2.74.11,6.23,6.23,0,0,0-3.3,1.8,6.56,6.56,0,0,1-2.54,1.82,3,3,0,0,1-1.16.06c.29.5,1.15,1,3.7.77a5.1,5.1,0,0,1,1.1,0,16.42,16.42,0,0,0,4.26-3.43.66.66,0,0,1,.26-.17,17.84,17.84,0,0,1-1.91,2.88,13.18,13.18,0,0,1-1.47,1.39c.33.62.16,1.31,2.31.45,3.61-1.44,3.91-5.59,3.91-5.59-.6-6.37-9.14-10.08-10.31-8.32a1.48,1.48,0,0,0,0,2.05l.8-.38C201.4,84.15,201.7,84.13,202,84.09Z" fill="#a9cb1c"></path><path d="M202.12,92.65a6.23,6.23,0,0,1,3.3-1.8,16.34,16.34,0,0,0,2.74-.11c-1.67-.08-3.3-1.23-4.93-.29-1.08.62-1.74,1.75-2.89,2.3a3.79,3.79,0,0,1-.5.19c-.48.51-1.6.67-1.58,1a1.29,1.29,0,0,0,.16.63,3,3,0,0,0,1.16-.06A6.56,6.56,0,0,0,202.12,92.65Z" fill="#8baa07"></path><path d="M201.54,88.28a6,6,0,0,1,5.59.14,5.28,5.28,0,0,0-4.87-1.09c-1.06.28-2,.71-3.07,1l-.84.56c-.51,1-2.22,1.1-2.1,2.38a.67.67,0,0,0,.22,0C198.4,90.63,199.74,89.11,201.54,88.28Z" fill="#8baa07"></path><path d="M200.61,85.47c-.38.8-2.68-1.15-4,.16a.68.68,0,0,0,.21.18,4.4,4.4,0,0,0,4-.09,5.63,5.63,0,0,1,2.76-.95,4.31,4.31,0,0,1,2.16,1A3.61,3.61,0,0,0,202,84.09c-.32,0-.61.06-.9.07l-.8.38C200.56,84.86,200.78,85.12,200.61,85.47Z" fill="#8baa07"></path><path d="M207.74,91.68a.66.66,0,0,0-.26.17,16.42,16.42,0,0,1-4.26,3.43,1.29,1.29,0,0,1,1.13.66,13.18,13.18,0,0,0,1.47-1.39A17.84,17.84,0,0,0,207.74,91.68Z" fill="#8baa07"></path><path d="M211.65,104s7.42-2.58,7.69-5.27-1.56-1.11-2-2.07,2.51-2.45,1.08-3.6-2.11,1.43-3.14,1.2.29-3.25-1.34-3.21-.71,1.72-1.94,2-1.73-2.5-3.16-1.22,1.06,3.06-.12,3.48-2.36-2.57-2.82.19S210.52,103.76,211.65,104Z" fill="#7aa901"></path><path d="M211.65,104a22.94,22.94,0,0,1,3.14-2.77,6.34,6.34,0,0,0,1.87-1.69c.78-.81.92-1.43.81-1.36s-1.72,1.84-2.86,1.7-.23-1.22.17-2,0-1.64.76-2.07a3.68,3.68,0,0,0,1.18-1.49A16.75,16.75,0,0,1,214,96.8c-.81.41-.11-1.32-.06-2a3.47,3.47,0,0,0-.37-1.47s-.68,3.67-1.34,3.72-.59-2.52-1-3-.89,2.29-.6,2.69,1.39,2.07,1,2.07-1.63-1.55-2.47-1.88a15.32,15.32,0,0,1-2.17-1.2s1.89,1.92,2.94,3,1.78,1.27,1.51,2.11A10.26,10.26,0,0,0,211.65,104Z" fill="#759b00"></path><ellipse cx="211.86" cy="88.21" rx="2.05" ry="2.61" fill="#362f44"></ellipse><path d="M213,87.41a1.75,1.75,0,0,0-.43-.87.32.32,0,1,0-.45.45,1.15,1.15,0,0,1,.26.59.32.32,0,0,0,.39.22A.32.32,0,0,0,213,87.41Z" fill="#776f93"></path><path d="M212.86,88.05a.32.32,0,0,0,0,.63A.32.32,0,0,0,212.86,88.05Z" fill="#776f93"></path><ellipse cx="198.57" cy="97.17" rx="2.61" ry="2.05" transform="translate(-10.02 23.95) rotate(-6.73)" fill="#362f44"></ellipse><path d="M199.51,98.23a1.75,1.75,0,0,0,.81-.53.32.32,0,0,0-.5-.39,1.15,1.15,0,0,1-.55.33.32.32,0,0,0-.17.41A.32.32,0,0,0,199.51,98.23Z" fill="#776f93"></path><path d="M198.84,98.15a.32.32,0,0,0-.63.07A.32.32,0,0,0,198.84,98.15Z" fill="#776f93"></path><ellipse cx="197.79" cy="83.64" rx="2.61" ry="2.05" transform="translate(34.27 222.85) rotate(-63.33)" fill="#362f44"></ellipse><path d="M199.19,83.45a1.75,1.75,0,0,0,0-1,.32.32,0,0,0-.6.2,1.15,1.15,0,0,1,0,.65.32.32,0,0,0,.25.37A.32.32,0,0,0,199.19,83.45Z" fill="#776f93"></path><path d="M198.76,84a.32.32,0,0,0-.28.57A.32.32,0,0,0,198.76,84Z" fill="#776f93"></path><path d="M186.93,95.27c-.12-1.57-1.3-2.15-2.57-2.72-.81-.36-1.34-.63-1.56-1.59-.1-.46,0-.95-.14-1.4A2.35,2.35,0,0,0,181.42,88a2.3,2.3,0,0,0-3.22,1.53c-.32,1.12.21,2.24-.93,3.07-.58.43-1.42.33-2,.85-1.09,1-.84,2.72-.16,3.86a4.45,4.45,0,0,0,2.4,1.94h0a4.64,4.64,0,0,0,1.65.23.66.66,0,0,0,.23-.05C182.65,99.58,187.22,99.07,186.93,95.27Zm-4.32,2.78a16.33,16.33,0,0,1-4.56,0,2.89,2.89,0,0,1-2.25-2.67c0-1.57,1.7-1.29,2.62-2a2.51,2.51,0,0,0,1-2,5.6,5.6,0,0,1,.06-1.59q2.28-1,2.07.75a4.13,4.13,0,0,0,0,.61,2.69,2.69,0,0,0,1,1.79c.9.72,2.71.78,3.11,2C186.19,96.86,183.95,97.83,182.61,98.05Z" fill="#f7c806"></path><path d="M191,94.22a3.61,3.61,0,0,1-2.27,3.5,4.31,4.31,0,0,0,1.36-2,5.63,5.63,0,0,0-.52-2.87,4.4,4.4,0,0,1,.52-4,.68.68,0,0,1,.21-.18,1.83,1.83,0,0,0-.22-.25c-1.59-1.47-1.14,2-2.76,1.64a1.25,1.25,0,0,1-.49-.22c.14.31.28.61.43.92.11,1.05.39,2.09.51,3.18a5.28,5.28,0,0,1-1.82,4.65,6,6,0,0,0,1-5.5c-.55-1.91-1.85-3.46-2.15-5.46a.67.67,0,0,1,0-.23,2,2,0,0,0-.54,0c-2.13.46.26,3.34-.94,3.54a.71.71,0,0,1-.73-.29,3.79,3.79,0,0,0,.11.52c.37,1.22,1.38,2,1.83,3.2.68,1.75-.7,3.18-1,4.82a16.34,16.34,0,0,1,.31-2.72A6.23,6.23,0,0,0,182.49,93a6.56,6.56,0,0,1-1.41-2.79,3,3,0,0,1,.11-1.16c-.54.21-1.18,1-1.32,3.54a5.1,5.1,0,0,1-.16,1.08,16.42,16.42,0,0,0,2.75,4.74.66.66,0,0,1,.13.28A17.84,17.84,0,0,1,180,96.4a13.18,13.18,0,0,1-1.15-1.67c-.66.23-1.32,0-.8,2.22.88,3.79,4.93,4.71,4.93,4.71,6.39.38,11.36-7.5,9.79-8.93a1.48,1.48,0,0,0-2-.26c.08.28.17.56.26.85S191,93.9,191,94.22Z" fill="#a9cb1c"></path><path d="M182.49,93a6.23,6.23,0,0,1,1.28,3.53,16.34,16.34,0,0,0-.31,2.72c.34-1.64,1.71-3.07,1-4.82-.45-1.16-1.46-2-1.83-3.2a3.79,3.79,0,0,1-.11-.52c-.43-.55-.42-1.68-.7-1.71a1.29,1.29,0,0,0-.65.06,3,3,0,0,0-.11,1.16A6.56,6.56,0,0,0,182.49,93Z" fill="#8baa07"></path><path d="M186.89,93.12a6,6,0,0,1-1,5.5A5.28,5.28,0,0,0,187.72,94c-.11-1.09-.39-2.13-.51-3.18-.14-.3-.29-.61-.43-.92-.89-.65-.75-2.37-2-2.44a.67.67,0,0,0,0,.23C185,89.66,186.34,91.21,186.89,93.12Z" fill="#8baa07"></path><path d="M189.81,92.63c-.74-.5,1.54-2.48.45-3.94a.68.68,0,0,0-.21.18,4.4,4.4,0,0,0-.52,4,5.63,5.63,0,0,1,.52,2.87,4.31,4.31,0,0,1-1.36,2,3.61,3.61,0,0,0,2.27-3.5c0-.32,0-.62.07-.9s-.18-.57-.26-.85C190.42,92.67,190.13,92.85,189.81,92.63Z" fill="#8baa07"></path><path d="M182.59,98.73a.66.66,0,0,0-.13-.28,16.42,16.42,0,0,1-2.75-4.74,1.29,1.29,0,0,1-.83,1A13.18,13.18,0,0,0,180,96.4,17.84,17.84,0,0,0,182.59,98.73Z" fill="#8baa07"></path><path d="M195.53,103.4s2.22-7.54.19-9.32-1.81.62-2.84.41-.53-3.47-2.3-3-.07,2.55-.85,3.26-2.47-2.12-3.39-.78,1,1.58.49,2.73-3,0-2.83,1.86,3.11.92,2.76,2.12-3.46.42-1.48,2.4S194.69,104.17,195.53,103.4Z" fill="#7aa901"></path><path d="M195.53,103.4a22.94,22.94,0,0,1-.43-4.17,6.34,6.34,0,0,0-.29-2.5c-.21-1.11-.63-1.58-.63-1.45s.49,2.46-.28,3.31-1.13-.52-1.56-1.32-1.31-1-1.24-1.82a3.68,3.68,0,0,0-.53-1.82,16.75,16.75,0,0,1,.49,3.64c-.14.9-1.13-.68-1.63-1.09a3.47,3.47,0,0,0-1.41-.55s2.59,2.69,2.25,3.25-2.39-1-3-1,1.34,2,1.84,2,2.49.07,2.24.42-2.21.42-3,.92a15.32,15.32,0,0,1-2.24,1.06s2.66-.42,4.16-.64,2.07-.71,2.6,0A10.26,10.26,0,0,0,195.53,103.4Z" fill="#759b00"></path><path d="M217.62,86.2c-1.54.32-2,1.57-2.36,2.91-.26.86-.45,1.42-1.38,1.75-.44.16-.94.14-1.37.32a2.35,2.35,0,0,0-1.4,1.43,2.3,2.3,0,0,0,1.94,3c1.15.17,2.19-.5,3.17.52.5.52.52,1.37,1.11,1.88,1.11,1,2.81.47,3.84-.34A4.45,4.45,0,0,0,222.79,95v0a4.64,4.64,0,0,0,0-1.67.66.66,0,0,0-.08-.22C222.45,89.89,221.35,85.41,217.62,86.2Zm3.32,3.92a16.33,16.33,0,0,1,.61,4.52,2.89,2.89,0,0,1-2.36,2.58c-1.57.16-1.5-1.52-2.29-2.34a2.51,2.51,0,0,0-2.08-.69,5.6,5.6,0,0,1-1.59.15q-1.25-2.13.47-2.15a4.13,4.13,0,0,0,.6-.13A2.69,2.69,0,0,0,216,90.88c.6-1,.42-2.79,1.61-3.35C219.29,86.72,220.54,88.83,220.94,90.12Z" fill="#f7c806"></path><path d="M203,86.89c1-1.17.65-2.42.17-3.74a2.11,2.11,0,0,1,.07-2.23c.26-.39.67-.67.91-1.07a2.35,2.35,0,0,0,.27-2,2.3,2.3,0,0,0-3.34-1.25c-1,.54-1.46,1.7-2.86,1.46-.71-.12-1.23-.79-2-.85-1.46-.11-2.54,1.28-2.89,2.56a4.45,4.45,0,0,0,.27,3.07l0,0a4.64,4.64,0,0,0,1,1.35.66.66,0,0,0,.2.13C196.92,86.78,200.46,89.73,203,86.89Zm-5-1.19a16.33,16.33,0,0,1-3.17-3.28,2.89,2.89,0,0,1,.36-3.48c1.17-1.06,2.11.33,3.23.52a2.51,2.51,0,0,0,2.08-.68c.38-.31.73-.89,1.19-1.06q2.27,1,.9,2a4.13,4.13,0,0,0-.41.46,2.69,2.69,0,0,0-.62,1.93c.1,1.15,1.32,2.5.69,3.65C201.34,87.45,199.08,86.5,198,85.7Z" fill="#f7c806"></path><path d="M211.62,100.45c.12-1.57-.95-2.32-2.12-3.09-.75-.49-1.23-.83-1.29-1.81,0-.47.13-.94.08-1.41a2.35,2.35,0,0,0-1-1.74,2.3,2.3,0,0,0-3.42,1c-.49,1.05-.14,2.24-1.4,2.89-.64.33-1.46.11-2.11.53-1.23.79-1.25,2.56-.76,3.79a4.45,4.45,0,0,0,2.07,2.29l0,0a4.64,4.64,0,0,0,1.6.48.66.66,0,0,0,.24,0C206.72,104,211.32,104.25,211.62,100.45Zm-4.7,2.07a16.33,16.33,0,0,1-4.51-.69,2.89,2.89,0,0,1-1.81-3c.29-1.55,1.88-1,2.89-1.54a2.51,2.51,0,0,0,1.25-1.8c.12-.48,0-1.15.3-1.57q2.4-.59,1.93,1.06a4.13,4.13,0,0,0,0,.61,2.69,2.69,0,0,0,.67,1.92c.78.85,2.56,1.19,2.76,2.49C210.65,101.9,208.28,102.51,206.93,102.53Z" fill="#d34040"></path><path d="M198.2,88.51c-.87-1.31-2.18-1.25-3.57-1.13a2.11,2.11,0,0,1-2.14-.64c-.31-.35-.47-.82-.8-1.16a2.35,2.35,0,0,0-1.84-.77,2.3,2.3,0,0,0-2.07,2.9c.26,1.13,1.27,1.85.68,3.14-.3.65-1.08,1-1.34,1.72-.48,1.38.59,2.78,1.73,3.45a4.45,4.45,0,0,0,3,.53h0a4.64,4.64,0,0,0,1.56-.6.66.66,0,0,0,.18-.16C196.54,94.36,200.3,91.69,198.2,88.51ZM195.77,93a16.33,16.33,0,0,1-4,2.23A2.89,2.89,0,0,1,188.52,94c-.72-1.4.86-2,1.34-3a2.51,2.51,0,0,0-.12-2.19c-.2-.45-.68-.94-.72-1.42q1.52-1.94,2.17-.35a4.13,4.13,0,0,0,.34.51,2.69,2.69,0,0,0,1.71,1.09c1.14.19,2.75-.63,3.7.27C198.32,90.26,196.83,92.2,195.77,93Z" fill="#d34040"></path><ellipse cx="186.93" cy="91.7" rx="2.05" ry="2.61" transform="translate(-19.91 115.55) rotate(-32.71)" fill="#362f44"></ellipse><path d="M187.48,90.4a1.75,1.75,0,0,0-.83-.5.32.32,0,1,0-.13.62,1.15,1.15,0,0,1,.54.35.32.32,0,0,0,.45,0A.32.32,0,0,0,187.48,90.4Z" fill="#776f93"></path><path d="M187.69,91a.32.32,0,0,0,.34.53A.32.32,0,0,0,187.69,91Z" fill="#776f93"></path><path d="M207,87.37a1.83,1.83,0,0,0-1.83-.39c-.32.17-.44.66-.56,1a6.13,6.13,0,0,0-.28,1,.65.65,0,0,0,.42.79l.1,0a.42.42,0,0,0,.13.11l.16.05h.07a.52.52,0,0,0,.22,0,2.88,2.88,0,0,0,1.36-.61A1.4,1.4,0,0,0,207,87.37Z" fill="#f2b00a"></path><path d="M206.39,87.09a1.92,1.92,0,0,0-1.91.08,1.39,1.39,0,0,0-.29,1,6.13,6.13,0,0,0,0,1.07.65.65,0,0,0,.63.63h.1a.42.42,0,0,0,.16.06h.24a.52.52,0,0,0,.22-.06,2.88,2.88,0,0,0,1.12-1A1.12,1.12,0,0,0,206.39,87.09Z" fill="#ffd217"></path><path d="M193.52,97.74a1.83,1.83,0,0,0-1.06,1.54c0,.36.44.66.69.89a6.13,6.13,0,0,0,.84.66.65.65,0,0,0,.89-.08l.06-.08a.42.42,0,0,0,.15-.08.84.84,0,0,0,.11-.13h0l0,0v0a.52.52,0,0,0,.1-.2,2.88,2.88,0,0,0,0-1.49A1.4,1.4,0,0,0,193.52,97.74Z" fill="#f2b00a"></path><path d="M193,98.18a1.92,1.92,0,0,0-.67,1.8,1.39,1.39,0,0,0,.77.63,6.13,6.13,0,0,0,1,.38.65.65,0,0,0,.83-.34.55.55,0,0,0,0-.1.42.42,0,0,0,.12-.12.84.84,0,0,0,.07-.16h0v-.05a.52.52,0,0,0,0-.22,2.88,2.88,0,0,0-.48-1.41A1.12,1.12,0,0,0,193,98.18Z" fill="#ffd217"></path><path d="M215.14,97.46a1.83,1.83,0,0,0-1.83-.39c-.32.17-.44.66-.56,1a6.13,6.13,0,0,0-.28,1,.65.65,0,0,0,.42.79l.1,0a.42.42,0,0,0,.13.11l.16.05h.07a.52.52,0,0,0,.22,0,2.88,2.88,0,0,0,1.36-.61A1.4,1.4,0,0,0,215.14,97.46Z" fill="#f2b00a"></path><path d="M214.55,97.19a1.92,1.92,0,0,0-1.91.08,1.39,1.39,0,0,0-.29,1,6.13,6.13,0,0,0,0,1.07.65.65,0,0,0,.63.63h.1a.42.42,0,0,0,.16.06h.24a.52.52,0,0,0,.22-.06,2.88,2.88,0,0,0,1.12-1A1.12,1.12,0,0,0,214.55,97.19Z" fill="#ffd217"></path><path d="M209.83,81A1.83,1.83,0,0,0,208,80.6c-.32.17-.44.66-.56,1a6.13,6.13,0,0,0-.28,1,.65.65,0,0,0,.42.79l.1,0a.42.42,0,0,0,.13.11l.16.05H208a.52.52,0,0,0,.22,0,2.88,2.88,0,0,0,1.36-.61A1.4,1.4,0,0,0,209.83,81Z" fill="#f2b00a"></path><path d="M209.25,80.72a1.92,1.92,0,0,0-1.91.08,1.39,1.39,0,0,0-.29,1,6.13,6.13,0,0,0,0,1.07.65.65,0,0,0,.63.63h.1a.42.42,0,0,0,.16.06h.24a.52.52,0,0,0,.22-.06,2.88,2.88,0,0,0,1.12-1A1.12,1.12,0,0,0,209.25,80.72Z" fill="#ffd217"></path><path d="M187.23,85.13a1.83,1.83,0,0,0-1.83-.39c-.32.17-.44.66-.56,1a6.13,6.13,0,0,0-.28,1,.65.65,0,0,0,.42.79l.1,0a.42.42,0,0,0,.13.11l.16.05h.07a.52.52,0,0,0,.22,0,2.88,2.88,0,0,0,1.36-.61A1.4,1.4,0,0,0,187.23,85.13Z" fill="#f2b00a"></path><path d="M186.65,84.86a1.92,1.92,0,0,0-1.91.08,1.39,1.39,0,0,0-.29,1,6.13,6.13,0,0,0,0,1.07.65.65,0,0,0,.63.63h.1a.42.42,0,0,0,.16.06h.24a.52.52,0,0,0,.22-.06,2.88,2.88,0,0,0,1.12-1A1.12,1.12,0,0,0,186.65,84.86Z" fill="#ffd217"></path><ellipse cx="184.01" cy="100.37" rx="4.23" ry="5.13" transform="translate(-20.23 147.52) rotate(-41.61)" fill="#7ea83b"></ellipse><polyline points="180.36 96.78 181.6 95.66 188.53 103.19 187.12 104.44" fill="#7ea83b"></polyline><ellipse cx="184.88" cy="99.59" rx="4.23" ry="5.13" transform="translate(-19.49 147.91) rotate(-41.61)" fill="#a2cb6b"></ellipse><ellipse cx="184.88" cy="99.59" rx="3.7" ry="4.48" transform="translate(-19.49 147.91) rotate(-41.61)" fill="#ecffcf"></ellipse><path d="M183.21,96.94l-.3-.35a.32.32,0,0,0-.45,0,.32.32,0,0,0,0,.45l.3.35a.32.32,0,0,0,.45,0A.32.32,0,0,0,183.21,96.94Z" fill="#b5e47c"></path><path d="M182.53,98.48a.33.33,0,0,1-.21-.05.33.33,0,0,0-.45,0,.32.32,0,0,0,0,.45,1,1,0,0,0,.65.22A.32.32,0,0,0,182.53,98.48Z" fill="#b5e47c"></path><path d="M182.48,99.83a.72.72,0,0,0-.27.12c-.33.24,0,.77.34.53a.21.21,0,0,1,.12,0,.32.32,0,0,0,.21-.4A.32.32,0,0,0,182.48,99.83Z" fill="#b5e47c"></path><path d="M183.92,101.59a.32.32,0,0,0-.44-.1.72.72,0,0,0-.28.43c-.08.4.54.54.62.14,0,0,0,0,0,0h0A.33.33,0,0,0,183.92,101.59Z" fill="#b5e47c"></path><path d="M184.51,102a2.14,2.14,0,0,0,0,.53c0,.41.66.39.63,0a1.44,1.44,0,0,1,0-.36C185.2,101.73,184.58,101.58,184.51,102Z" fill="#b5e47c"></path><path d="M186.6,102.35a.65.65,0,0,1-.12-.26c-.1-.4-.7-.21-.6.19a1.13,1.13,0,0,0,.19.41.32.32,0,0,0,.44.1A.32.32,0,0,0,186.6,102.35Z" fill="#b5e47c"></path><path d="M187.87,101.63a1,1,0,0,1-.16-.2c-.21-.35-.75,0-.53.34a1.73,1.73,0,0,0,.27.33C187.73,102.38,188.16,101.91,187.87,101.63Z" fill="#b5e47c"></path><path d="M188.4,100.1a.32.32,0,0,0-.44-.1.24.24,0,0,1-.09,0c-.41,0-.39.63,0,.63a.88.88,0,0,0,.42-.11A.32.32,0,0,0,188.4,100.1Z" fill="#b5e47c"></path><path d="M187.77,98.09l-.43.19a.33.33,0,0,0-.21.4.32.32,0,0,0,.4.21l.43-.19a.33.33,0,0,0,.21-.4A.32.32,0,0,0,187.77,98.09Z" fill="#b5e47c"></path><path d="M186.71,96.93a.32.32,0,0,0-.45,0l-.19.26a.33.33,0,0,0,0,.45.32.32,0,0,0,.45,0l.19-.26A.33.33,0,0,0,186.71,96.93Z" fill="#b5e47c"></path><path d="M184.78,96.39l-.06.32c-.07.4.55.54.62.14l.06-.32C185.47,96.13,184.85,96,184.78,96.39Z" fill="#b5e47c"></path><path d="M185.55,98.27a1.24,1.24,0,0,0-1.17-.58.69.69,0,0,0-.48.42l0,0a.66.66,0,0,0-.14.26,1.54,1.54,0,0,0,0,1.4,1.45,1.45,0,0,0,1.24.86.62.62,0,0,0,.21,0h.16C186.63,100.4,186.08,98.9,185.55,98.27Z" fill="#fefffd"></path><ellipse cx="212.04" cy="99.39" rx="5.13" ry="4.23" transform="translate(-20.04 130.68) rotate(-32.79)" fill="#7ea83b"></ellipse><polyline points="207.93 102.44 207 101.04 215.51 95.34 216.53 96.93" fill="#7ea83b"></polyline><ellipse cx="211.4" cy="98.4" rx="5.13" ry="4.23" transform="translate(-19.6 130.17) rotate(-32.79)" fill="#a2cb6b"></ellipse><ellipse cx="211.4" cy="98.4" rx="4.48" ry="3.7" transform="translate(-19.6 130.17) rotate(-32.79)" fill="#ecffcf"></ellipse><path d="M208.52,99.65l-.39.24a.32.32,0,0,0,0,.45.32.32,0,0,0,.45,0l.39-.24a.32.32,0,0,0,0-.45A.32.32,0,0,0,208.52,99.65Z" fill="#b5e47c"></path><path d="M209.93,100.56a.33.33,0,0,1-.08.2.33.33,0,0,0,0,.45.32.32,0,0,0,.45,0,1,1,0,0,0,.32-.61A.32.32,0,0,0,209.93,100.56Z" fill="#b5e47c"></path><path d="M211.26,100.81a.72.72,0,0,0,.08.29c.18.36.76.11.58-.26a.21.21,0,0,1,0-.12.32.32,0,0,0-.36-.27A.32.32,0,0,0,211.26,100.81Z" fill="#b5e47c"></path><path d="M213.23,99.65a.32.32,0,0,0-.16.42.72.72,0,0,0,.39.34c.38.14.62-.45.24-.59h0A.33.33,0,0,0,213.23,99.65Z" fill="#b5e47c"></path><path d="M213.71,99.14a2.14,2.14,0,0,0,.52.11c.41,0,.48-.6.08-.63a1.44,1.44,0,0,1-.36-.07C213.56,98.42,213.32,99,213.71,99.14Z" fill="#b5e47c"></path><path d="M214.38,97.13a.65.65,0,0,1-.27.08c-.41,0-.31.66.09.63a1.13,1.13,0,0,0,.44-.13.32.32,0,0,0,.16-.42A.32.32,0,0,0,214.38,97.13Z" fill="#b5e47c"></path><path d="M213.87,95.76a1,1,0,0,1-.23.13.32.32,0,0,0,.26.58,1.73,1.73,0,0,0,.37-.21C214.59,96,214.19,95.52,213.87,95.76Z" fill="#b5e47c"></path><path d="M212.44,95a.32.32,0,0,0-.16.42.24.24,0,0,1,0,.09c-.07.4.56.48.63.08a.88.88,0,0,0,0-.43A.32.32,0,0,0,212.44,95Z" fill="#b5e47c"></path><path d="M210.36,95.31l.12.46a.33.33,0,0,0,.36.27.32.32,0,0,0,.27-.36l-.12-.46a.33.33,0,0,0-.36-.27A.32.32,0,0,0,210.36,95.31Z" fill="#b5e47c"></path><path d="M209.05,96.19a.32.32,0,0,0,0,.45l.22.23a.33.33,0,0,0,.45,0,.32.32,0,0,0,0-.45l-.22-.23A.33.33,0,0,0,209.05,96.19Z" fill="#b5e47c"></path><path d="M208.22,98l.31.11c.39.13.62-.46.24-.59l-.31-.11C208.07,97.29,207.83,97.88,208.22,98Z" fill="#b5e47c"></path><path d="M210.19,97.54c-.37.22-.8.58-.76,1.06a.69.69,0,0,0,.34.53l0,0a.66.66,0,0,0,.24.18,1.54,1.54,0,0,0,1.39.19,1.45,1.45,0,0,0,1-1.1.62.62,0,0,0,0-.21,1.27,1.27,0,0,0,0-.16C212.47,96.8,210.9,97.12,210.19,97.54Z" fill="#fefffd"></path><ellipse cx="207.06" cy="85.62" rx="5.13" ry="4.23" transform="translate(-12.21 131.74) rotate(-34.34)" fill="#7ea83b"></ellipse><polyline points="211.09 82.46 212.05 83.84 203.7 89.76 202.64 88.2" fill="#7ea83b"></polyline><ellipse cx="207.73" cy="86.59" rx="5.13" ry="4.23" transform="translate(-12.64 132.29) rotate(-34.34)" fill="#a2cb6b"></ellipse><ellipse cx="207.73" cy="86.59" rx="4.48" ry="3.7" transform="translate(-12.64 132.29) rotate(-34.34)" fill="#ecffcf"></ellipse><path d="M210.57,85.27,211,85a.32.32,0,0,0,0-.45.32.32,0,0,0-.45,0l-.38.25a.32.32,0,0,0,0,.45A.32.32,0,0,0,210.57,85.27Z" fill="#b5e47c"></path><path d="M209.13,84.4a.33.33,0,0,1,.08-.2.33.33,0,0,0,0-.45.32.32,0,0,0-.45,0,1,1,0,0,0-.3.62A.32.32,0,0,0,209.13,84.4Z" fill="#b5e47c"></path><path d="M207.8,84.18a.72.72,0,0,0-.09-.28c-.19-.36-.77-.09-.57.27a.21.21,0,0,1,0,.12.32.32,0,0,0,.37.26A.32.32,0,0,0,207.8,84.18Z" fill="#b5e47c"></path><path d="M205.87,85.39A.32.32,0,0,0,206,85a.72.72,0,0,0-.39-.33c-.39-.13-.61.47-.22.59h0A.33.33,0,0,0,205.87,85.39Z" fill="#b5e47c"></path><path d="M205.4,85.92a2.14,2.14,0,0,0-.52-.1c-.41,0-.47.61-.06.63a1.44,1.44,0,0,1,.36.06C205.57,86.64,205.79,86,205.4,85.92Z" fill="#b5e47c"></path><path d="M204.78,87.95a.65.65,0,0,1,.27-.09c.41,0,.29-.67-.11-.62a1.13,1.13,0,0,0-.43.14.32.32,0,0,0-.15.42A.32.32,0,0,0,204.78,87.95Z" fill="#b5e47c"></path><path d="M205.33,89.3a1,1,0,0,1,.22-.13.32.32,0,0,0-.27-.57,1.73,1.73,0,0,0-.36.22C204.6,89.07,205,89.55,205.33,89.3Z" fill="#b5e47c"></path><path d="M206.78,90a.32.32,0,0,0,.15-.42.24.24,0,0,1,0-.09c.05-.41-.58-.46-.63-.06a.88.88,0,0,0,.06.43A.32.32,0,0,0,206.78,90Z" fill="#b5e47c"></path><path d="M208.85,89.65l-.13-.45a.33.33,0,0,0-.37-.26.32.32,0,0,0-.26.37l.13.45a.33.33,0,0,0,.37.26A.32.32,0,0,0,208.85,89.65Z" fill="#b5e47c"></path><path d="M210.13,88.74a.32.32,0,0,0,0-.45l-.23-.22a.33.33,0,0,0-.45,0,.32.32,0,0,0,0,.45l.23.22A.33.33,0,0,0,210.13,88.74Z" fill="#b5e47c"></path><path d="M210.92,86.9l-.31-.1c-.39-.12-.61.47-.22.59l.31.1C211.09,87.61,211.31,87,210.92,86.9Z" fill="#b5e47c"></path><path d="M209,87.42c.37-.23.78-.6.73-1.08a.69.69,0,0,0-.35-.52l0,0a.66.66,0,0,0-.24-.17,1.54,1.54,0,0,0-1.39-.15,1.45,1.45,0,0,0-1,1.12.62.62,0,0,0,0,.21,1.27,1.27,0,0,0,0,.16C206.7,88.22,208.26,87.86,209,87.42Z" fill="#fefffd"></path><path d="M319.66,208c3.63,1.11,7.26,2.2,11,3a56.26,56.26,0,0,0,6.88.79l3.87-2.62,26.76-19.9-20.47-6.81-48.42,16.88C305.26,203.69,312.65,205.86,319.66,208Z" opacity="0.32" fill="url(#linear-gradient-2)"></path><path d="M357.47,167.59c-4.83-.42-9.91-1.88-13.48-5.18v14.32a14.86,14.86,0,0,0,14.86,14.86h0a14.86,14.86,0,0,0,14.86-14.86V162.16C368.63,164.23,362.88,168.06,357.47,167.59Z" fill="#b21414"></path><ellipse cx="358.84" cy="162.31" rx="14.86" ry="7.87" fill="#5ed18d"></ellipse><path d="M358.84,163.65s-10.1-1.49-12.78-17.83C346.06,145.82,354.68,150.57,358.84,163.65Z" fill="#5ed18d"></path><path d="M360.33,161.57s-11.59-20.8,0-34.77A58.28,58.28,0,0,1,360.33,161.57Z" fill="#5ed18d"></path><path d="M358.84,148.49s-10.1-1.49-12.78-17.83C346.06,130.66,354.68,135.42,358.84,148.49Z" fill="#5ed18d"></path><path d="M360.07,155.15s-2.53-9.89,11.51-18.67C371.58,136.48,370.52,146.27,360.07,155.15Z" fill="#5ed18d"></path><ellipse cx="358.84" cy="162.31" rx="14.86" ry="7.87" fill="#146666"></ellipse><path d="M358.84,163.65s-10.1-1.49-12.78-17.83C346.06,145.82,354.68,150.57,358.84,163.65Z" fill="#5ed18d"></path><path d="M360.33,161.57s-11.59-20.8,0-34.77A58.28,58.28,0,0,1,360.33,161.57Z" fill="#5ed18d"></path><path d="M358.84,148.49s-10.1-1.49-12.78-17.83C346.06,130.66,354.68,135.42,358.84,148.49Z" fill="#5ed18d"></path><path d="M360.07,155.15s-2.53-9.89,11.51-18.67C371.58,136.48,370.52,146.27,360.07,155.15Z" fill="#5ed18d"></path><path d="M198.34,82.78a98.25,98.25,0,0,0-3.64,14c-.35,1.89,2.54,2.7,2.89.8a98.24,98.24,0,0,1,3.64-14C201.86,81.75,199,81,198.34,82.78Z" fill="#fffcc7"></path><path d="M183.73,201.56c-.92-.11-3.77-.21-4.84-.21-3.24,2.52-7.61,3.44-11.36,3.84-4.64.5-10-.16-14-3.19l-.85,7.53c-.48,5.78,7.11,4.64,10,4.51a84.74,84.74,0,0,0,16.53-2.53c2.14-.53,9.07-1.63,9.46-5.17S187.87,202,183.73,201.56Z" fill="#b21414"></path><path d="M170.63,180.8s-4.41,20.39-2.34,20.31,15.44.45,15.44.45-3.1,7.75-13.1,9.2S153.49,202,153.49,202l4-25.44" fill="#f9ad62"></path><path d="M151.82,171.36l-3,16.23s4.66,4.79,20.37,4.22,0-28.68,0-28.68" fill="#edbab9"></path><path d="M142.64,132.11s17.53-14.07,29.17-15.72,17.71,11,16.88,19.42S160,148.88,160,148.88" fill="#edbab9"></path><path d="M200.06,213.7c-.92-.11-3.77-.21-4.84-.21-3.24,2.52-7.61,3.44-11.36,3.84-4.64.5-10-.16-14-3.19l-.85,7.53c-.48,5.78,7.11,4.64,10,4.51a84.74,84.74,0,0,0,16.53-2.53c2.14-.53,9.07-1.63,9.46-5.17S204.19,214.18,200.06,213.7Z" fill="#b21414"></path><path d="M187,192.94s-4.41,20.39-2.34,20.31,15.44.45,15.44.45-3.1,7.75-13.1,9.2-17.14-8.75-17.14-8.75l4-25.44" fill="#ffc585"></path><path d="M143.76,132.76s17.53-14.07,29.17-15.72,17.71,11,16.88,19.42-28.69,13.08-28.69,13.08" fill="#edbab9"></path><path d="M153.1,137.44c2.27-2.11,32-16,42.5-9.65s9.82,11,8.5,18.76-11.46,49.33-11.46,49.33-10,4.69-23.8,1.13l2.94-30.91-39.64-21.64" fill="#ffe0de"></path><path d="M113.28,111.23s-.63-23.63,10.14-24,24.83,7.36,25.61,19.86,2.88,35.89,2.88,40.27S144,167.91,144,167.91" fill="#b21414"></path><path d="M199.24,91.26c-1.39,1.19-2.77,2.38-4.12,3.61.15-.32.31-.63.45-1,.67-1.48-1.09-3.26-2.4-1.89q-2.59,2.7-5,5.53a1.62,1.62,0,0,0,.26,2.35l-.25.32a1.67,1.67,0,0,0,.08,2.17,1.74,1.74,0,0,0,.5,1.33c-.76.92.13,2.16,1.22,2.3l.16.1-1.61,1.06c-1.64,1.09-.14,3.78,1.52,2.68l8.27-5.47c2-1.31,4-2.57,5.25-4.62C203.32,96.48,201.9,92.12,199.24,91.26Z" fill="#ffc585"></path><path d="M131.75,83.83a1.6,1.6,0,0,0-.12-2A6.28,6.28,0,0,0,129,79.7a2.33,2.33,0,0,0-3,1.69c-.63,2.42,2.32,5.12,4.65,4.36a1.57,1.57,0,0,0,1.08-1.9Z" fill="#ffc585"></path><ellipse cx="134.19" cy="215.78" rx="22.37" ry="8.3" fill="#d66449"></ellipse><polyline points="130.43 178.62 131.29 212.06 137.96 212.06 137.96 178.62" fill="#d66449"></polyline><path d="M103.59,159.85a35.54,35.54,0,0,1-1.68-5c-3.33-13.06-5.52-62.07,16.52-60.08,24.18,2.19,16,62.73,40.52,60.87s34.54,4.52,24.52,14C163.43,188.59,115.88,189,103.59,159.85Z" fill="#d66449"></path><path d="M148.56,70.54s-1.16,18.75-8.21,20.56c-5,1.28-11.37-2.52-11.61-10.06S143.69,64.31,148.56,70.54Z" fill="#ffc585"></path><path d="M133.86,80.94s9-1.81,14.12-9.32-13.93-14.39-21.06-8.29-9.05,19.61,3.61,24.55Z" fill="#007058"></path><path d="M127.17,81.64c-1.49,1-40,33.24-23.06,47,14.13,11.48,25.11-40.2,25.5-44.21" fill="#007058"></path><path d="M146.88,99.76s7.31,9,11.91,9.65,27.68-12.45,30.43-12S193,110.64,193,110.64s-23.44,22.45-33.9,23.59-20.42-11.35-20.42-11.35" fill="#b21414"></path></svg>